HIERARCHY
ROOT Hips
{
	OFFSET 0.00000 0.00000 0.00000
	CHANNELS 6 Xposition Yposition Zposition Yrotation Zrotation Xrotation 
	JOINT Lumbar
	{
		OFFSET 0 0 0
		CHANNELS 3 Zrotation Xrotation Yrotation
		JOINT Neck
		{
			OFFSET 0.00 0.2701 0.00
			CHANNELS 3 Zrotation Xrotation Yrotation
			End Site
			{
				OFFSET 0.00 0.1379 0.00
			}
		}
		JOINT RightShoulder
		{
			OFFSET 0.0119 0.2289 0.1181
			CHANNELS 3 Zrotation Xrotation Yrotation
			JOINT RightElbow
			{
				OFFSET 0.00 -0.1475 0.00
				CHANNELS 2 Zrotation Yrotation
				JOINT RightWrist
				{
					OFFSET 0.00 -0.1605 0.00
					CHANNELS 2 Zrotation Xrotation
					End Site
					{
						OFFSET 0.0040 -0.1068 0.0006
					}
				}
			}
		}
		JOINT LeftShoulder
		{
			OFFSET 0.0119 0.2289 -0.1181
			CHANNELS 3 Zrotation Xrotation Yrotation
			JOINT LeftElbow
			{
				OFFSET 0.00 -0.1475 0.00
				CHANNELS 2 Zrotation Yrotation
				JOINT LeftWrist
				{
					OFFSET 0.00 -0.1605 0.00
					CHANNELS 2 Zrotation Xrotation
					End Site
					{
						OFFSET 0.0040 -0.1068 -0.0006
					}
				}
			}
		}
	}
	JOINT RightHip
	{
		OFFSET 0.0316 -0.0424 0.0458
		CHANNELS 3 Zrotation Xrotation Yrotation
		JOINT RightKnee
		{
			OFFSET 0.00 -0.2438 0.00
			CHANNELS 1 Zrotation
			JOINT RightAnkle
			{
				OFFSET 0.00 -0.2449 0.00
				CHANNELS 3 Zrotation Xrotation Yrotation
				End Site
				{
					OFFSET 0.1237 -0.0542 0.0051
				}
			}
		}
	}
	JOINT LeftHip
	{
		OFFSET 0.0316 -0.0424 -0.0458
		CHANNELS 3 Zrotation Xrotation Yrotation
		JOINT LeftKnee
		{
			OFFSET 0.00 -0.2438 0.00
			CHANNELS 1 Zrotation
			JOINT LeftAnkle
			{
				OFFSET 0.00 -0.2449 0.00
				CHANNELS 3 Zrotation Xrotation Yrotation
				End Site
				{
					OFFSET 0.1237 -0.0542 -0.0051
				}
			}
		}
	}
}
MOTION
Frames: 11
Frame Time: 0.02
-0 0.57926 -0 166.79224 0 -4.94261 4.14998 5.9613 -6.51952 -38.29751 8.85985 7.68432 35.59558 -28.76687 10.47565 12.33505 82.55393 -2.39414 -3.88346 31.88136 0.87529 -18.41393 9.55718 -81.8769 -2.81941 3.19659 -3.66824 2.0432 9.39764 -6.42404 -12.96135 -2.23405 -7.68844 -6.21514 5.56734 19.05056 -6.30043 -3.3418 3.46687 6.36019
0.00097 0.57922 0.0028 166.16966 0 -4.96364 3.76436 5.89535 -6.69908 -38.50399 9.04579 7.64675 36.03949 -28.90783 10.60584 12.76692 82.55284 -2.59862 -4.21645 32.03189 0.97412 -18.70399 9.59094 -81.83203 -2.73931 3.21658 -2.98315 1.96179 10.2803 -7.25797 -12.90648 -2.2561 -8.0467 -6.34809 5.26373 19.44495 -5.93193 -3.39432 3.46103 6.42079
0.00194 0.57918 0.00559 165.54712 0 -4.98473 3.38024 5.82682 -6.87812 -38.71005 9.23258 7.61163 36.47927 -29.04939 10.73931 13.19677 82.55195 -2.80175 -4.54707 32.18235 1.07241 -18.98213 9.62333 -81.7867 -2.65987 3.23632 -2.29665 1.88305 11.16317 -8.09526 -12.85199 -2.27795 -8.40508 -6.48124 4.96109 19.83929 -5.56324 -3.44721 3.45517 6.48121
0.00292 0.57914 0.00836 164.9206 0 -5.00458 2.99766 5.7489 -7.05492 -38.91424 9.4233 7.58278 36.90856 -29.19261 10.88534 13.62422 82.55205 -3.00284 -4.873 32.33235 1.17014 -19.23045 9.65177 -81.74108 -2.58227 3.25559 -1.60077 1.81146 12.05858 -8.95008 -12.79698 -2.29948 -8.77176 -6.61465 4.65842 20.23939 -5.19342 -3.50087 3.44856 6.53828
0.00386 0.57911 0.01123 164.31748 0 -5.02894 2.60608 5.72257 -7.2413 -39.12564 9.59164 7.51692 37.3955 -29.32447 10.96269 14.06621 82.54716 -3.21641 -5.22567 32.48277 1.27164 -19.65482 9.70253 -81.69934 -2.49493 3.27774 -0.95809 1.69873 12.89137 -9.70724 -12.74294 -2.32301 -9.09964 -6.74447 4.35474 20.61151 -4.83341 -3.549 3.44522 6.60924
0.00489 0.57906 0.01388 163.66391 0 -5.04517 2.23448 5.58592 -7.40879 -39.3234 9.80819 7.53199 37.75859 -29.48195 11.18665 14.47576 82.55266 -3.40224 -5.52011 32.63351 1.36452 -19.69418 9.70508 -81.64782 -2.42826 3.29352 -0.20118 1.67535 13.85315 -10.67342 -12.68814 -2.34209 -9.50573 -6.88328 4.0543 21.04072 -4.4504 -3.60976 3.43542 6.65339
0.00618 0.57889 0.01597 162.86139 0 -5.02654 1.90525 5.14016 -7.51341 -39.47225 10.15989 7.75701 37.78877 -29.70257 11.8237 14.81371 82.58928 -3.52296 -5.66665 32.77816 1.44004 -18.73547 9.57795 -81.58084 -2.41905 3.29383 0.88377 1.88797 15.23214 -12.23648 -12.6186 -2.35069 -10.1776 -7.03836 3.74821 21.66073 -4.01387 -3.69955 3.40307 6.59839
0.00755 0.5787 0.01782 162.00937 0 -5.00195 1.59823 4.58358 -7.60078 -39.60943 10.56017 8.06612 37.69194 -29.95054 12.60706 15.11561 82.63588 -3.61349 -5.75194 32.92476 1.50587 -17.37553 9.40155 -81.50206 -2.4307 3.28739 2.08237 2.19269 16.73069 -14.00747 -12.55021 -2.35453 -10.92041 -7.20395 3.44794 22.33354 -3.55251 -3.80296 3.36492 6.52009
0.00886 0.57853 0.01975 161.18454 0 -4.98818 1.28888 4.07972 -7.70347 -39.75965 10.93748 8.34637 37.64775 -30.19147 13.32009 15.42313 82.67655 -3.71073 -5.85733 33.07491 1.57191 -16.15488 9.24507 -81.42072 -2.4325 3.2826 3.22291 2.46298 18.1379 -15.67406 -12.48984 -2.35931 -11.59875 -7.37093 3.1539 22.96066 -3.09451 -3.9044 3.3326 6.46969
0.01029 0.57832 0.02183 160.33773 0 -4.94026 0.94659 3.56504 -7.77563 -39.87777 11.31888 8.58864 37.6264 -30.4103 14.05293 15.77743 82.72359 -3.83834 -5.99636 33.20549 1.65522 -15.11401 9.09834 -81.3717 -2.43564 3.28354 4.39271 2.70327 19.70522 -17.38719 -12.39476 -2.36902 -12.41146 -7.5132 2.82167 23.67687 -2.66706 -3.98923 3.28729 6.34943
0.01149 0.57819 0.02352 159.5278 0 -4.96195 0.67849 3.04772 -7.90598 -40.05922 11.70282 8.92809 37.52552 -30.68082 14.77466 16.02398 82.75913 -3.89452 -6.04949 33.37834 1.70079 -13.60592 8.92049 -81.25396 -2.44121 3.27128 5.52558 3.02619 20.96232 -19.0466 -12.37055 -2.3676 -12.96313 -7.70774 2.57133 24.22305 -2.17378 -4.11036 3.26705 6.36512
